<svg id="Capa_1" data-name="Capa 1" xmlns="http://www.w3.org/2000/svg" viewBox="0 0 473.96 170.72"><defs><style>.cls-1{fill:#878787;}.cls-2{fill:#29235c;}.cls-3{fill:#4bbbc0;}</style></defs><title>LOGO EQUIPO ETICO svg</title><ellipse class="cls-1" cx="165" cy="56.66" rx="5.03" ry="4.91"/><ellipse class="cls-1" cx="173.43" cy="66.15" rx="4.04" ry="3.95"/><ellipse class="cls-2" cx="50.6" cy="82.02" rx="5.71" ry="5.58"/><ellipse class="cls-3" cx="160.35" cy="70.3" rx="5.71" ry="5.58"/><path class="cls-1" d="M109.71,350.6a17,17,0,0,1-11.88-4.74L38.39,288.43a18.64,18.64,0,0,1-.27-26.59l57.24-57.48a19.36,19.36,0,0,1,13.94-5.59A19.15,19.15,0,0,1,123,204.83l10.43,11.24-9.71,8.42L113.3,213.24a5.83,5.83,0,0,0-4.23-1.87,6.12,6.12,0,0,0-4.3,1.73L47.53,270.58a6.26,6.26,0,0,0,.09,8.94L107.06,337a3.85,3.85,0,0,0,5.28,0L182,270.69l9.16,9L121.5,346A17.06,17.06,0,0,1,109.71,350.6Z" transform="translate(-32.68 -198.28)"/><path class="cls-3" d="M166.3,350.18H166a18.28,18.28,0,0,1-13.13-5.86L142.42,333l8.5-7.44,10.43,11.37a6.66,6.66,0,0,0,4.83,2.15,6.56,6.56,0,0,0,4.91-2l57.23-58.11a7.16,7.16,0,0,0-.1-10.15l-59.44-58.06a4.66,4.66,0,0,0-6.43,0l-69.61,67-8-7.94,69.61-67a16.3,16.3,0,0,1,22.52.08L236.3,260.9a18.18,18.18,0,0,1,.25,25.76l-57.24,58.12A18.33,18.33,0,0,1,166.3,350.18Z" transform="translate(-32.68 -198.28)"/><path class="cls-1" d="M263.3,360.08a2.63,2.63,0,0,1,3,3h-.59a2.38,2.38,0,0,0-4.76,0v3a2.38,2.38,0,0,0,4.76,0h.59a3,3,0,1,1-5.94,0v-3C260.33,361.08,261.31,360.08,263.3,360.08Z" transform="translate(-32.68 -198.28)"/><path class="cls-1" d="M273.4,360.08v.6h-5.35v3.56h4.17v.6h-4.17v3.57h5.35V369h-5.94v-8.92Z" transform="translate(-32.68 -198.28)"/><path class="cls-1" d="M275.19,361v8h-.6v-8.92h.74l4.61,8v-8h.6V369h-.74Z" transform="translate(-32.68 -198.28)"/><path class="cls-1" d="M285,360.68V369h-.6v-8.32h-2.67v-.6h5.94v.6Z" transform="translate(-32.68 -198.28)"/><path class="cls-1" d="M292.43,360.08a2.38,2.38,0,0,1,0,4.76H292L294.8,369h-.7l-2.78-4.16h-1.87V369h-.59v-8.92Zm0,.6h-3v3.56h3a1.78,1.78,0,0,0,0-3.56Z" transform="translate(-32.68 -198.28)"/><path class="cls-1" d="M299,360.08a2.63,2.63,0,0,1,3,3v3a3,3,0,1,1-5.94,0v-3C296,361.08,297,360.08,299,360.08Zm2.37,3a2.38,2.38,0,1,0-4.75,0v3a2.38,2.38,0,1,0,4.75,0Z" transform="translate(-32.68 -198.28)"/><path class="cls-1" d="M308.47,360.08a2.63,2.63,0,0,1,3,3v3a2.63,2.63,0,0,1-3,3h-3v-8.92Zm0,.6h-2.38v7.73h2.38a2.1,2.1,0,0,0,2.38-2.38v-3A2.1,2.1,0,0,0,308.47,360.68Z" transform="translate(-32.68 -198.28)"/><path class="cls-1" d="M318.57,360.08v.6h-5.34v3.56h4.16v.6h-4.16v3.57h5.34V369h-5.94v-8.92Z" transform="translate(-32.68 -198.28)"/><path class="cls-1" d="M325.12,360.08a2.63,2.63,0,0,1,3,3h-.6a2.38,2.38,0,1,0-4.75,0v3a2.38,2.38,0,1,0,4.75,0h.6a3,3,0,0,1-5.94,0v-3C322.15,361.08,323.13,360.08,325.12,360.08Z" transform="translate(-32.68 -198.28)"/><path class="cls-1" d="M332.27,360.08l2.84,8.92h-.63l-.57-1.79H330l-.57,1.79h-.63l2.83-8.92Zm1.45,6.54L332,361.06l-1.76,5.56Z" transform="translate(-32.68 -198.28)"/><path class="cls-1" d="M339.38,360.08a2.38,2.38,0,0,1,0,4.76h-3V369h-.59v-8.92Zm0,.6h-3v3.56h3a1.78,1.78,0,1,0,0-3.56Z" transform="translate(-32.68 -198.28)"/><path class="cls-1" d="M345.16,360.08,348,369h-.63l-.56-1.79h-3.91l-.57,1.79h-.64l2.84-8.92Zm1.44,6.54-1.76-5.56-1.76,5.56Z" transform="translate(-32.68 -198.28)"/><path class="cls-1" d="M351.67,360.08a2.63,2.63,0,0,1,3,3h-.59a2.38,2.38,0,0,0-4.76,0v3a2.38,2.38,0,0,0,4.76,0h.59a3,3,0,1,1-5.94,0v-3C348.7,361.08,349.68,360.08,351.67,360.08Z" transform="translate(-32.68 -198.28)"/><path class="cls-1" d="M356.42,369h-.59v-8.92h.59Z" transform="translate(-32.68 -198.28)"/><path class="cls-1" d="M360.88,360.68V369h-.59v-8.32h-2.67v-.6h5.94v.6Z" transform="translate(-32.68 -198.28)"/><path class="cls-1" d="M366.33,360.08l2.83,8.92h-.63l-.56-1.79h-3.91l-.57,1.79h-.63l2.83-8.92Zm1.44,6.54L366,361.06l-1.76,5.56Z" transform="translate(-32.68 -198.28)"/><path class="cls-1" d="M372.85,360.08a2.63,2.63,0,0,1,3,3h-.59a2.38,2.38,0,0,0-4.76,0v3a2.38,2.38,0,0,0,4.76,0h.59a3,3,0,0,1-5.94,0v-3A2.63,2.63,0,0,1,372.85,360.08Z" transform="translate(-32.68 -198.28)"/><path class="cls-1" d="M377.6,369H377v-8.92h.59Z" transform="translate(-32.68 -198.28)"/><path class="cls-1" d="M381.77,360.08a2.63,2.63,0,0,1,3,3v3a3,3,0,0,1-5.94,0v-3C378.8,361.08,379.78,360.08,381.77,360.08Zm2.38,3a2.38,2.38,0,1,0-4.76,0v3a2.38,2.38,0,0,0,4.76,0Zm-2.88-3.59,1.08-1.09.42.42-1.09,1.09Z" transform="translate(-32.68 -198.28)"/><path class="cls-1" d="M386.52,361v8h-.59v-8.92h.74l4.61,8v-8h.59V369h-.74Z" transform="translate(-32.68 -198.28)"/><path class="cls-1" d="M398.41,364.65V369h-.6v-4.35l-2.91-4.57h.74l2.47,3.88,2.48-3.88h.73Z" transform="translate(-32.68 -198.28)"/><path class="cls-1" d="M407.32,364.87c-2-.42-3-1.22-3-2.41a2.06,2.06,0,0,1,1.49-2.23,8.73,8.73,0,0,1,4.45.39v.65c-2-.55-3.36-.69-4.15-.41a1.58,1.58,0,0,0-1.19,1.6c0,.8.79,1.38,2.37,1.75,2,.42,3,1.23,3,2.41a2.06,2.06,0,0,1-1.48,2.23,8.38,8.38,0,0,1-4.46-.44v-.66c2,.6,3.37.76,4.17.48a1.59,1.59,0,0,0,1.18-1.61C409.7,365.83,408.91,365.25,407.32,364.87Z" transform="translate(-32.68 -198.28)"/><path class="cls-1" d="M417.43,360.08v.6h-5.35v3.56h4.16v.6h-4.16v3.57h5.35V369h-5.94v-8.92Z" transform="translate(-32.68 -198.28)"/><path class="cls-1" d="M424,364.84h-2.38v-.6h3V366a3,3,0,0,1-5.94,0v-3a2.63,2.63,0,0,1,3-3c1.75,0,2.72.78,2.93,2.31l-.58.17a2,2,0,0,0-2.35-1.88,2.1,2.1,0,0,0-2.38,2.38v3a2.38,2.38,0,0,0,4.76,0Z" transform="translate(-32.68 -198.28)"/><path class="cls-1" d="M431.1,366v-5.95h.6V366a2.63,2.63,0,0,1-3,3c-2,0-3-1-3-3v-5.95h.6V366a2.38,2.38,0,1,0,4.75,0Z" transform="translate(-32.68 -198.28)"/><path class="cls-1" d="M436.45,360.08a2.38,2.38,0,0,1,0,4.76h-.39l2.77,4.16h-.71l-2.78-4.16h-1.86V369h-.59v-8.92Zm0,.6h-3v3.56h3a1.78,1.78,0,1,0,0-3.56Z" transform="translate(-32.68 -198.28)"/><path class="cls-1" d="M440.61,369H440v-8.92h.59Z" transform="translate(-32.68 -198.28)"/><path class="cls-1" d="M444.77,360.08a2.63,2.63,0,0,1,3,3v3a2.63,2.63,0,0,1-3,3h-3v-8.92Zm0,.6h-2.38v7.73h2.38a2.1,2.1,0,0,0,2.38-2.38v-3A2.1,2.1,0,0,0,444.77,360.68Z" transform="translate(-32.68 -198.28)"/><path class="cls-1" d="M451.93,360.08l2.83,8.92h-.63l-.56-1.79h-3.91l-.57,1.79h-.64l2.84-8.92Zm1.44,6.54-1.76-5.56-1.76,5.56Z" transform="translate(-32.68 -198.28)"/><path class="cls-1" d="M458.45,360.08a2.63,2.63,0,0,1,3,3v3a2.63,2.63,0,0,1-3,3h-3v-8.92Zm0,.6h-2.38v7.73h2.38a2.1,2.1,0,0,0,2.37-2.38v-3A2.1,2.1,0,0,0,458.45,360.68Z" transform="translate(-32.68 -198.28)"/><path class="cls-1" d="M468.55,360.08a2.38,2.38,0,0,1,0,4.76h-3V369H465v-8.92Zm0,.6h-3v3.56h3a1.78,1.78,0,0,0,0-3.56Z" transform="translate(-32.68 -198.28)"/><path class="cls-1" d="M475.68,360.08a2.38,2.38,0,0,1,0,4.76h-.39l2.77,4.16h-.71l-2.78-4.16h-1.86V369h-.59v-8.92Zm0,.6h-3v3.56h3a1.78,1.78,0,1,0,0-3.56Z" transform="translate(-32.68 -198.28)"/><path class="cls-1" d="M479.85,369h-.6v-8.92h.6Z" transform="translate(-32.68 -198.28)"/><path class="cls-1" d="M483.39,369l-2.84-8.92h.63l2.53,7.95,2.52-7.95h.63L484,369Z" transform="translate(-32.68 -198.28)"/><path class="cls-1" d="M489.92,360.08l2.83,8.92h-.63l-.56-1.79h-3.91l-.57,1.79h-.63l2.83-8.92Zm1.44,6.54-1.76-5.56-1.76,5.56Z" transform="translate(-32.68 -198.28)"/><path class="cls-1" d="M496.43,360.08a2.63,2.63,0,0,1,3,3v3a2.63,2.63,0,0,1-3,3h-3v-8.92Zm0,.6h-2.38v7.73h2.38a2.1,2.1,0,0,0,2.38-2.38v-3A2.1,2.1,0,0,0,496.43,360.68Z" transform="translate(-32.68 -198.28)"/><path class="cls-1" d="M503.59,360.08l2.83,8.92h-.63l-.56-1.79h-3.91l-.57,1.79h-.63l2.83-8.92Zm1.44,6.54-1.76-5.56-1.76,5.56Z" transform="translate(-32.68 -198.28)"/><path class="cls-3" d="M262,254.76a1.36,1.36,0,0,1-1.45-1.46V200.54a1.35,1.35,0,0,1,1.45-1.45h28.6c.89,0,1.46.4,1.46,1.29V201a1.29,1.29,0,0,1-1.46,1.29H265.19a1.3,1.3,0,0,0-1.45,1.21v25.61a1.36,1.36,0,0,0,1.45,1.46h25.37c.89,0,1.46.4,1.46,1.29v.65a1.28,1.28,0,0,1-1.46,1.29H264.87c-.73,0-1.13.65-1.13,1.46v14.78c0,.81.4,1.46,1.13,1.46h25.69c.89,0,1.46.4,1.46,1.29v.65a1.29,1.29,0,0,1-1.46,1.29Z" transform="translate(-32.68 -198.28)"/><path class="cls-3" d="M318.53,255.38a13,13,0,0,1-1.38-.16,20.65,20.65,0,0,1-5.79-1.82,22,22,0,0,1-8.59-7.73,31.24,31.24,0,0,1-4.46-11.59,39.44,39.44,0,0,1-.63-7.12c0-15.35,8.24-28.68,23.43-28.68s23.27,13.33,23.27,28.68a38,38,0,0,1-2.13,12.85,25.88,25.88,0,0,1-6.33,10,20.46,20.46,0,0,1-10.37,5.31,23.26,23.26,0,0,1-4.49.28C320.21,255.43,319.37,255.43,318.53,255.38Zm5.49-3.29a12.2,12.2,0,0,0,2.21-.39,17.1,17.1,0,0,0,2.56-.94,17.91,17.91,0,0,0,4.54-3,23,23,0,0,0,6.25-9.9A34.52,34.52,0,0,0,341.23,227c0-15.35-8.4-25.53-20.12-25.53S300.92,211.61,300.92,227a33.16,33.16,0,0,0,2.52,13.24,21.13,21.13,0,0,0,6.94,8.86,17.85,17.85,0,0,0,4.81,2.43,20.75,20.75,0,0,0,7.28.69C323,252.16,323.51,252.14,324,252.09Z" transform="translate(-32.68 -198.28)"/><path class="cls-3" d="M394.33,227c0,15.19-6.47,28.61-21.66,28.61S350.86,242.15,350.86,227V200.54c0-.89.4-1.45,1.29-1.45h.65a1.27,1.27,0,0,1,1.29,1.45V227c0,15.19,6.79,25.46,18.58,25.46S391.1,242.15,391.1,227V200.54c0-.89.4-1.45,1.29-1.45H393a1.27,1.27,0,0,1,1.29,1.45Z" transform="translate(-32.68 -198.28)"/><path class="cls-3" d="M409.69,253.3a1.28,1.28,0,0,1-1.29,1.46h-.65c-.89,0-1.29-.57-1.29-1.46V200.54c0-.89.4-1.45,1.29-1.45h.65a1.27,1.27,0,0,1,1.29,1.45Z" transform="translate(-32.68 -198.28)"/><path class="cls-3" d="M433.85,199.09c13.17,0,20.93,7.35,20.93,17.29s-7.76,17.45-20.93,17.45H426.5a1.36,1.36,0,0,0-1.45,1.46v18a1.29,1.29,0,0,1-1.3,1.46h-.64c-.89,0-1.3-.57-1.3-1.46V200.54a1.36,1.36,0,0,1,1.46-1.45Zm0,31.51c13.17,0,17.7-7.52,17.7-14.22s-4.53-14.06-17.7-14.06H426.5a1.3,1.3,0,0,0-1.45,1.21v25.61c0,.81.4,1.46,1.13,1.46Z" transform="translate(-32.68 -198.28)"/><path class="cls-3" d="M483.07,198.28c15.19,0,23.27,13.33,23.27,28.68,0,15.19-8.08,28.61-23.27,28.61S459.64,242.15,459.64,227C459.64,211.61,467.88,198.28,483.07,198.28Zm0,54.14c11.71,0,20.12-10.27,20.12-25.46,0-15.35-8.41-25.53-20.12-25.53s-20.2,10.18-20.2,25.53C462.87,242.15,471.27,252.42,483.07,252.42Z" transform="translate(-32.68 -198.28)"/><path class="cls-3" d="M334.77,255.43a1,1,0,0,1-.46-.11l-14-7.29a1,1,0,0,1-.43-1.36,1,1,0,0,1,1.35-.44l14,7.3a1,1,0,0,1,.43,1.36A1,1,0,0,1,334.77,255.43Z" transform="translate(-32.68 -198.28)"/><path class="cls-2" d="M277.9,304.27h23.46v16.09H277.9v13.4h29.33v16.09H260.31V274.77h46.92v16.09H277.9Z" transform="translate(-32.68 -198.28)"/><path class="cls-2" d="M365.87,274.77v16.09H348.28v59H330.69v-59h-17.6V274.77Z" transform="translate(-32.68 -198.28)"/><path class="cls-2" d="M389.34,349.85h-17.6V274.77h17.6Z" transform="translate(-32.68 -198.28)"/><path class="cls-2" d="M430.39,325.72V323H448v2.68q0,24.13-26.39,24.13T395.2,325.72V298.9q0-24.13,26.39-24.13T448,298.9v2.68H430.39V298.9q0-8-8.8-8t-8.79,8v26.82q0,8,8.79,8T430.39,325.72Z" transform="translate(-32.68 -198.28)"/><path class="cls-2" d="M453.85,325.72V298.9q0-24.13,26.39-24.13t26.39,24.13v26.82q0,24.13-26.39,24.13T453.85,325.72Zm17.59-26.82v26.82q0,8,8.8,8t8.8-8V298.9q0-8-8.8-8T471.44,298.9Z" transform="translate(-32.68 -198.28)"/></svg>